<?xml version="1.0" standalone="no"?>
<!DOCTYPE svg PUBLIC "-//W3C//DTD SVG 20010904//EN"
 "http://www.w3.org/TR/2001/REC-SVG-20010904/DTD/svg10.dtd">
<svg version="1.0" xmlns="http://www.w3.org/2000/svg"
 width="512.000000pt" height="512.000000pt" viewBox="0 0 512.000000 512.000000"
 preserveAspectRatio="xMidYMid meet">
<metadata>
Created by potrace 1.11, written by Peter Selinger 2001-2013
</metadata>
<g transform="translate(0.000000,512.000000) scale(0.100000,-0.100000)"
fill="#000000" stroke="none">
<path d="M0 2560 l0 -2560 885 0 c487 0 885 2 885 4 0 14 -58 154 -90 218
l-39 76 122 45 c121 45 230 77 261 77 9 0 28 -24 46 -59 16 -33 34 -62 40 -66
21 -13 17 -18 -204 -252 l-40 -43 708 0 707 0 -44 58 c-58 76 -55 70 -83 173
-17 66 -21 95 -14 109 15 27 84 35 139 16 24 -9 53 -16 64 -16 33 0 85 -38 96
-72 6 -17 11 -56 11 -87 1 -31 6 -83 13 -116 l13 -60 82 -3 82 -3 0 56 c0 31
-5 65 -10 76 -6 10 -12 54 -13 97 -3 119 18 141 171 176 39 9 75 16 81 16 15
0 38 -166 33 -245 -2 -27 -36 -95 -78 -152 l-16 -23 168 1 c133 1 162 3 136
11 -25 9 -34 19 -41 47 -14 53 -34 297 -26 321 9 28 82 76 160 105 l65 25 0
-163 c0 -130 4 -180 21 -255 l21 -92 404 0 404 0 0 190 0 190 -29 0 c-16 0
-60 9 -97 20 -97 29 -132 69 -168 192 -15 51 -29 99 -32 106 -4 15 37 16 80 2
17 -5 48 -12 69 -15 24 -4 40 -12 43 -23 10 -37 77 -159 104 -192 l29 -35 1
367 0 367 -82 49 c-46 27 -106 61 -134 76 -97 48 -416 187 -424 184 -5 -2 -29
-31 -54 -65 -65 -89 -75 -90 -195 -10 -135 90 -180 111 -300 140 -105 26 -120
35 -121 72 0 11 -7 43 -15 70 -21 67 -14 88 40 119 49 29 89 88 99 149 8 42 8
42 66 22 50 -18 72 -9 95 36 19 36 12 110 -14 138 -19 21 -120 55 -216 72
-103 18 -291 7 -393 -23 -45 -14 -91 -33 -102 -43 -27 -25 -34 -74 -18 -131
21 -75 56 -78 169 -17 4 2 7 -18 7 -45 0 -64 20 -100 87 -158 57 -50 63 -65
46 -120 -5 -16 -12 -46 -16 -67 -8 -47 -35 -73 -88 -81 -73 -12 -318 -97 -394
-137 -41 -21 -84 -39 -97 -39 -15 0 -40 19 -73 55 -48 52 -54 55 -98 55 -34 0
-77 -13 -154 -46 -126 -55 -400 -192 -525 -263 -99 -55 -110 -55 -120 7 -4 20
-9 49 -12 63 -4 23 3 30 78 76 163 98 391 215 560 288 47 20 89 44 93 52 3 9
-2 38 -11 65 -15 46 -17 48 -52 48 -161 -1 -434 -73 -653 -171 -48 -22 -91
-39 -97 -39 -6 0 -13 21 -17 47 -3 27 -7 59 -9 72 -3 21 7 29 98 71 240 113
360 148 599 171 103 10 127 15 122 27 -3 7 -5 22 -5 32 0 31 -98 167 -190 264
-69 73 -93 106 -119 167 -66 155 -59 183 39 148 29 -10 55 -17 56 -16 2 2 -3
25 -11 52 -35 116 -51 384 -31 515 l8 56 -68 33 c-38 18 -80 38 -94 45 -49 23
-157 211 -169 295 -10 71 5 152 51 269 47 121 66 145 179 213 l74 44 102 -1
c125 -2 212 -26 333 -93 125 -68 195 -147 234 -263 5 -15 19 -18 98 -18 102 0
236 -28 349 -74 36 -14 69 -26 74 -26 4 0 29 14 55 30 26 17 79 41 118 55 73
25 240 55 312 55 37 0 40 2 40 28 0 33 23 119 40 152 25 48 82 110 124 135 48
28 183 57 268 57 32 0 86 -10 124 -22 73 -25 136 -79 227 -197 83 -108 97
-149 97 -287 0 -103 -11 -231 -26 -314 -7 -34 -71 -100 -130 -134 l-52 -29 -7
-62 c-3 -34 -17 -109 -30 -167 -13 -58 -27 -125 -30 -150 -4 -25 -13 -67 -21
-94 -8 -27 -12 -51 -9 -54 2 -2 24 7 49 22 24 14 54 26 66 26 19 0 20 -4 14
-37 -17 -93 -44 -156 -98 -226 -31 -40 -64 -98 -75 -128 -46 -136 -106 -217
-215 -294 -13 -10 -17 -21 -12 -39 6 -24 11 -26 64 -26 110 0 348 -55 475
-109 l47 -20 0 1295 0 1295 -42 -34 c-109 -88 -171 -89 -343 -6 -94 45 -217
79 -290 79 -63 0 -109 -27 -220 -131 -44 -41 -93 -84 -110 -95 -16 -12 -88
-35 -159 -53 -71 -18 -165 -46 -207 -63 -43 -17 -84 -28 -92 -25 -15 5 -37
142 -37 225 0 40 -1 41 -42 52 -43 10 -133 37 -154 46 -6 3 -14 -9 -18 -26 -8
-41 -78 -189 -102 -217 l-19 -22 -90 43 c-99 47 -337 188 -457 272 l-78 54
-72 -54 c-39 -30 -145 -99 -236 -153 l-164 -98 -59 -85 c-77 -111 -84 -120
-96 -120 -13 0 -186 70 -196 79 -11 11 134 237 207 321 117 135 203 204 302
246 158 65 217 85 307 105 l88 19 72 -62 c110 -96 316 -248 335 -248 4 0 25
51 46 113 22 61 43 121 47 133 7 21 10 20 97 -22 128 -61 165 -64 244 -23 35
17 76 39 92 47 24 13 196 61 219 62 14 0 6 -36 -23 -105 -26 -59 -30 -82 -30
-157 0 -100 3 -102 77 -69 56 26 85 78 130 240 34 120 40 132 58 126 11 -3 48
-8 83 -12 l64 -6 -7 -92 c-6 -82 -5 -94 10 -103 35 -19 83 8 214 117 40 34 74
61 76 61 3 0 51 -22 107 -48 113 -53 310 -163 400 -224 31 -21 59 -38 62 -38
4 0 6 164 6 365 l0 365 -2560 0 -2560 0 0 -2560z m1997 1306 c1 -1 -7 -58 -18
-126 -30 -182 -24 -248 34 -382 26 -59 47 -117 47 -130 0 -34 -25 -65 -71 -88
-22 -12 -92 -64 -157 -117 -148 -120 -168 -139 -203 -186 l-28 -38 -5 43 c-3
24 -12 96 -21 161 -20 157 -21 152 23 177 20 12 67 44 103 71 l65 50 -18 102
c-10 56 -19 149 -20 207 -1 89 2 113 21 157 13 28 31 59 41 68 34 30 91 45
150 39 30 -3 56 -7 57 -8z m103 -1001 c9 -11 9 -26 0 -67 -25 -114 -30 -125
-54 -136 -13 -6 -84 -57 -158 -114 -73 -57 -149 -114 -168 -127 -19 -13 -54
-42 -77 -64 l-42 -40 -10 39 c-36 139 -40 315 -10 380 15 32 65 60 167 95 133
45 327 64 352 34z m-40 -517 c0 -32 -10 -82 -31 -160 -8 -30 -19 -42 -52 -59
-61 -32 -155 -97 -206 -143 -44 -41 -220 -237 -276 -308 -17 -21 -33 -38 -36
-38 -3 0 -11 58 -18 128 -6 71 -16 144 -21 163 -6 19 -10 57 -10 86 l0 53 148
98 c81 54 172 108 202 120 62 24 268 90 288 91 7 1 12 -12 12 -31z m-331 -750
c-27 -135 -24 -219 12 -384 l31 -141 -37 -74 c-38 -74 -129 -199 -146 -199 -5
0 -12 12 -15 28 -4 15 -13 40 -21 55 -37 73 -80 403 -83 624 l0 42 133 70 c72
39 135 71 138 71 3 0 -2 -42 -12 -92z m2216 -233 c119 -17 190 -37 268 -76
l57 -29 0 -73 c0 -112 -39 -240 -96 -315 l-26 -33 -61 58 c-34 33 -77 69 -94
82 l-33 22 6 -30 c9 -44 -23 -179 -44 -185 -9 -3 -44 -6 -77 -8 -51 -2 -66 2
-100 25 -22 15 -51 43 -65 62 -14 19 -27 35 -30 35 -3 0 -11 -20 -18 -44 -6
-24 -22 -57 -36 -73 -22 -25 -30 -28 -88 -27 -35 0 -73 6 -84 12 -28 15 -45
81 -52 200 -2 50 -9 92 -14 92 -5 0 -38 -27 -72 -60 l-63 -60 -27 21 c-33 26
-67 91 -95 183 -25 80 -29 73 79 130 82 43 168 72 267 90 104 19 372 19 498 1z
m-2051 -487 c20 -23 47 -64 61 -91 l25 -50 -98 -92 c-53 -51 -110 -112 -127
-135 -16 -23 -45 -59 -62 -79 -32 -35 -32 -35 -33 -11 -1 85 -22 215 -40 250
-11 22 -20 46 -20 54 0 8 21 27 48 42 26 15 65 44 87 64 48 44 107 90 117 90
3 0 23 -19 42 -42z m497 16 c71 -39 83 -62 85 -174 2 -72 11 -125 38 -220 19
-69 38 -133 42 -144 9 -23 14 -25 -130 54 -65 36 -124 74 -132 85 -17 26 -44
182 -44 257 0 83 39 168 78 168 8 0 36 -12 63 -26z m427 -153 c75 -39 132
-131 154 -250 13 -69 1 -129 -50 -240 l-29 -64 -25 54 c-14 30 -36 85 -48 122
-12 38 -42 98 -66 134 l-44 66 16 86 c9 47 18 92 20 99 5 17 29 15 72 -7z
m1757 -192 c43 -17 85 -35 92 -41 8 -6 13 -35 13 -77 0 -84 29 -196 75 -289
20 -40 35 -75 33 -76 -29 -25 -111 -27 -171 -4 -53 20 -138 174 -163 296 -11
52 -14 99 -10 146 7 79 12 90 35 81 9 -4 52 -20 96 -36z"/>
<path d="M4591 3876 c-83 -30 -171 -154 -171 -242 0 -40 2 -43 38 -54 68 -22
175 -92 244 -162 72 -71 89 -78 138 -53 57 30 77 71 90 183 23 207 -20 287
-175 328 -61 17 -119 17 -164 0z"/>
<path d="M2601 3834 c-103 -39 -160 -89 -181 -157 -26 -86 21 -191 137 -308
46 -47 70 -65 84 -62 10 3 39 31 65 62 41 49 247 221 266 221 4 0 12 9 18 19
12 24 -22 120 -54 150 -11 11 -57 38 -101 60 -95 49 -139 52 -234 15z"/>
<path d="M3871 3440 c-22 -13 14 -59 75 -95 63 -36 74 -52 74 -111 l0 -31 78
-6 c96 -7 145 2 200 36 30 19 42 34 42 50 0 52 -78 89 -280 130 -162 33 -177
35 -189 27z"/>
<path d="M3433 3410 c-34 -10 -86 -31 -115 -46 -66 -36 -168 -135 -168 -163 0
-19 6 -21 58 -22 31 0 82 -4 112 -9 l55 -8 46 47 c25 26 60 68 78 94 33 49 53
117 33 117 -6 0 -16 2 -24 4 -7 3 -41 -4 -75 -14z"/>
<path d="M2890 3003 c-19 -1 -59 -6 -87 -9 l-53 -5 29 -43 c16 -23 72 -83 125
-133 114 -109 139 -120 249 -106 l75 9 6 -41 c8 -56 -8 -245 -23 -273 -6 -12
-47 -40 -90 -62 -117 -58 -165 -114 -177 -203 -8 -53 16 -107 47 -107 28 0
167 78 184 104 7 11 17 33 20 49 8 29 32 51 106 97 l46 28 7 88 c3 49 18 175
31 279 32 245 32 255 -2 287 -50 46 -61 48 -265 46 -106 0 -209 -3 -228 -5z"/>
<path d="M4049 2990 c-50 -26 -92 -78 -85 -104 17 -76 56 -403 56 -481 1 -38
4 -42 63 -80 52 -34 67 -51 97 -107 33 -64 37 -67 114 -105 44 -21 100 -53
125 -72 l45 -34 23 29 c13 16 31 49 40 74 9 25 21 48 26 51 7 5 -143 104 -223
148 -8 4 -35 35 -60 67 -25 32 -63 67 -83 77 -22 11 -39 28 -41 40 -5 21 -22
297 -20 297 1 0 16 -13 33 -29 36 -33 92 -46 170 -39 72 7 120 36 149 90 17
32 37 52 62 63 36 16 127 101 118 110 -4 5 -454 25 -533 24 -22 0 -56 -9 -76
-19z"/>
<path d="M4162 1808 c-7 -7 -12 -24 -12 -39 0 -23 5 -28 36 -34 20 -3 71 -22
114 -41 43 -19 83 -34 88 -34 6 0 14 25 18 56 8 64 6 66 -70 89 -60 18 -157
20 -174 3z"/>
<path d="M3051 1789 c-35 -4 -65 -10 -68 -12 -5 -6 26 -99 37 -111 9 -9 71 18
169 75 39 23 50 33 40 39 -25 14 -112 18 -178 9z"/>
<path d="M4572 1669 l3 -80 60 -25 c33 -14 81 -34 108 -45 45 -18 276 -139
345 -181 l32 -20 0 145 0 146 -53 20 c-30 10 -78 27 -108 35 -54 16 -366 86
-382 86 -4 0 -7 -36 -5 -81z"/>
</g>
</svg>
